<svg width="36" height="36" viewBox="0 0 36 36" fill="none" xmlns="http://www.w3.org/2000/svg">
<path fill-rule="evenodd" clip-rule="evenodd" d="M30.8506 19.8C30.8506 19.26 31.0306 18.72 31.0306 18C31.0306 17.28 31.0306 16.74 30.8506 16.2L34.6306 13.14C34.9906 12.78 34.9906 12.42 34.8106 12.06L31.2106 5.76C31.0306 5.58 30.6706 5.4 30.1306 5.58L25.6306 7.38C24.7306 6.66 23.6506 6.12 22.5706 5.58L21.8506 0.9C22.0306 0.36 21.4906 0 21.1306 0H13.9306C13.5706 0 13.0306 0.36 13.0306 0.72L12.3106 5.58C11.2306 5.94 10.3306 6.66 9.25062 7.38L4.93061 5.58C4.39061 5.4 4.03061 5.58 3.67061 5.94L0.0706149 12.24C-0.109385 12.42 0.0706148 12.96 0.430615 13.32L4.21061 16.2C4.21061 16.74 4.03061 17.28 4.03061 18C4.03061 18.72 4.03061 19.26 4.21061 19.8L0.430615 22.86C0.0706148 23.22 0.0706149 23.58 0.250615 23.94L3.85061 30.24C4.03061 30.42 4.39061 30.6 4.93061 30.42L9.43061 28.62C10.3306 29.34 11.4106 29.88 12.4906 30.42L13.2106 35.1C13.2106 35.46 13.5706 35.82 14.1106 35.82H21.3106C21.6706 35.82 22.2106 35.46 22.2106 35.1L22.9306 30.42C24.0106 29.88 25.0906 29.34 25.9906 28.62L30.4906 30.42C30.8506 30.6 31.3906 30.42 31.5706 30.06L35.1706 23.76C35.3506 23.4 35.3506 22.86 34.9906 22.68L30.8506 19.8V19.8ZM17.5306 24.3C14.1106 24.3 11.2306 21.42 11.2306 18C11.2306 14.58 14.1106 11.7 17.5306 11.7C20.9506 11.7 23.8306 14.58 23.8306 18C23.8306 21.42 20.9506 24.3 17.5306 24.3V24.3Z" fill="#FEFEFE"/>
</svg>
